<svg xmlns="http://www.w3.org/2000/svg" width="24" height="24" viewBox="0 0 24 24" fill="none">
  <g transform="translate(2.497, 20.227) scale(0.02279, -0.02279)">
    <path d="M547 722Q553 707 557.0 689.5Q561 672 561 646Q561 579 520.0 523.0Q479 467 388 403Q422 379 452.0 347.0Q482 315 501.0 273.5Q520 232 520 179Q520 142 509.0 112.0Q498 82 479 60H505Q568 60 602.0 90.5Q636 121 636 177Q636 204 625.0 214.0Q614 224 590 224V277L774 290Q780 278 785.0 257.0Q790 236 790 213Q790 115 716.0 57.5Q642 0 513 0H203Q130 0 87.0 37.5Q44 75 44 150Q44 209 70.0 252.0Q96 295 140.5 331.0Q185 367 239 405Q324 464 356.0 509.0Q388 554 388 599Q388 658 337 658V710ZM266 323Q241 305 223.0 269.0Q205 233 205 185Q205 119 226.5 90.5Q248 62 282 62Q314 62 333.5 89.5Q353 117 353 166Q353 220 326.0 262.5Q299 305 266 323Z" fill="currentColor" fill-rule="evenodd" />
  </g>
</svg>
